<?xml version="1.0" standalone="no"?>
<!DOCTYPE svg PUBLIC "-//W3C//DTD SVG 20010904//EN"
 "http://www.w3.org/TR/2001/REC-SVG-20010904/DTD/svg10.dtd">
<svg version="1.0" xmlns="http://www.w3.org/2000/svg"
 width="256.000000pt" height="256.000000pt" viewBox="0 0 256.000000 256.000000"
 preserveAspectRatio="xMidYMid meet">
<metadata>
Created by potrace 1.11, written by Peter Selinger 2001-2013
</metadata>
<g transform="translate(0.000000,256.000000) scale(0.100000,-0.100000)"
fill="#000000" stroke="none">
<path d="M342 2363 c-8 -8 -11 -21 -8 -29 3 -7 1 -14 -5 -14 -6 0 -7 -5 -3
-11 3 -6 0 -15 -7 -20 -9 -5 -10 -9 -2 -9 13 0 12 -18 -1 -39 -6 -9 -5 -12 1
-8 6 4 11 -7 12 -26 3 -54 4 -57 13 -57 4 0 8 -6 8 -14 0 -7 7 -19 15 -26 9
-7 13 -15 10 -18 -2 -3 7 -16 21 -29 14 -12 21 -23 17 -23 -4 0 -3 -4 2 -8 17
-12 49 -65 34 -56 -12 6 -12 5 0 -9 7 -9 11 -26 8 -37 -3 -11 -1 -23 4 -26 6
-4 6 -11 0 -18 -6 -7 -8 -16 -4 -19 3 -4 1 -7 -6 -7 -7 0 -10 -4 -7 -8 3 -5
-1 -29 -9 -54 -7 -26 -10 -50 -7 -54 4 -4 1 -4 -5 0 -12 6 -18 -11 -14 -36 0
-5 -4 -8 -10 -8 -5 0 -8 -3 -5 -8 2 -4 -2 -16 -10 -27 -8 -10 -14 -15 -14 -11
0 5 -12 1 -26 -9 -14 -9 -28 -14 -31 -12 -2 3 -12 -2 -22 -11 -9 -9 -29 -26
-44 -37 -15 -11 -27 -25 -27 -31 0 -6 -9 -19 -20 -29 -10 -9 -19 -20 -18 -24
0 -3 -1 -8 -2 -11 -16 -41 -15 -200 1 -200 5 0 8 -22 7 -49 -2 -28 -6 -47 -12
-44 -5 3 -7 2 -3 -3 3 -5 8 -29 12 -53 6 -44 22 -80 40 -93 6 -5 6 -8 1 -8 -6
0 -1 -6 9 -14 16 -12 17 -16 6 -30 -7 -9 -10 -16 -6 -16 4 0 1 -7 -6 -16 -17
-21 -18 -166 -1 -186 6 -8 9 -18 5 -21 -3 -4 -1 -7 5 -7 7 0 12 -7 12 -15 0
-18 44 -65 60 -65 6 0 8 -4 5 -10 -5 -9 23 -15 48 -11 4 0 7 -2 7 -7 0 -4 17
-7 38 -6 56 2 122 15 122 25 0 5 7 9 15 9 8 0 24 9 36 21 20 20 21 20 37 1 25
-28 94 -72 104 -66 4 3 8 1 8 -4 0 -4 15 -7 33 -6 86 6 105 9 101 16 -3 4 7
10 21 14 14 3 25 10 25 14 0 5 9 12 20 15 11 4 18 10 16 13 -2 4 2 16 10 27 8
10 14 15 14 9 0 -5 5 -2 10 6 8 13 10 12 10 -2 0 -10 7 -18 17 -18 14 0 15 -2
1 -17 -16 -20 -23 -153 -7 -153 4 0 6 -7 3 -15 -4 -8 -1 -15 6 -15 6 0 9 -4 6
-8 -3 -5 4 -14 14 -22 10 -8 17 -17 14 -22 -3 -4 1 -8 9 -8 8 0 17 -7 20 -14
3 -8 22 -18 41 -22 20 -3 36 -11 36 -18 0 -6 4 -6 9 3 6 9 11 10 15 2 4 -6 13
-8 19 -4 12 8 33 13 55 15 6 1 12 6 12 11 0 6 3 8 6 4 4 -3 13 1 21 9 12 11
18 12 29 3 8 -6 14 -8 14 -4 0 4 8 1 17 -6 11 -10 14 -10 9 -2 -4 7 -2 13 3
13 6 0 11 -4 11 -8 0 -5 7 -9 15 -9 8 0 12 5 8 10 -3 5 3 6 15 3 11 -4 23 -2
27 4 3 6 11 8 16 4 13 -8 69 15 69 29 0 6 3 7 7 4 3 -4 12 -2 20 5 7 6 17 8
20 4 4 -4 2 -10 -5 -15 -6 -4 -10 -17 -7 -29 2 -12 0 -24 -5 -27 -6 -3 -5 -16
0 -30 5 -14 7 -25 4 -25 -4 0 -2 -6 3 -12 6 -7 9 -21 8 -31 -2 -10 3 -21 11
-24 8 -3 11 -9 8 -14 -3 -5 0 -9 6 -9 6 0 8 -4 5 -10 -3 -5 -1 -10 4 -10 6 0
11 -7 11 -15 0 -8 3 -14 8 -13 4 2 8 -1 9 -6 1 -8 94 -57 108 -57 2 0 18 -4
35 -9 17 -5 30 -5 30 0 0 5 6 7 14 4 8 -3 31 3 53 14 21 11 42 21 48 23 17 7
64 57 58 63 -4 3 -2 6 4 6 9 0 22 -9 69 -49 7 -5 15 -7 18 -4 3 4 6 2 6 -4 0
-10 14 -13 58 -14 12 -1 22 -6 22 -13 0 -6 5 -4 10 4 5 8 10 10 10 4 0 -6 7
-11 15 -11 8 0 12 4 9 8 -2 4 4 8 13 8 35 0 58 6 77 21 45 36 75 69 89 101 34
78 38 96 22 118 -7 11 -7 13 3 7 6 -4 12 -3 12 1 0 5 -6 15 -12 22 -10 10 -10
12 -1 7 8 -5 8 2 -2 20 -8 15 -12 31 -9 36 3 4 0 8 -6 8 -6 0 -8 5 -5 10 3 6
1 10 -6 10 -7 0 -9 3 -6 6 4 4 -3 15 -15 25 -11 11 -18 19 -14 19 4 0 1 6 -6
14 -7 8 -16 12 -20 10 -4 -3 -10 1 -15 8 -10 16 -50 37 -82 43 -13 2 -26 6
-28 9 -3 2 -18 0 -34 -4 -33 -10 -37 -4 -12 17 12 10 13 12 3 8 -12 -5 -12 -4
1 7 9 7 15 21 13 31 -1 10 3 20 9 23 14 5 20 131 6 140 -5 3 -7 10 -4 15 4 5
1 9 -4 9 -6 0 -11 8 -11 18 0 10 -9 24 -19 32 -11 7 -18 17 -15 22 3 4 -1 8
-9 8 -7 0 -22 8 -33 17 -27 25 -71 39 -121 38 -33 -1 -40 2 -31 12 6 7 7 13 2
13 -5 0 4 7 20 15 34 18 39 19 31 4 -4 -6 2 -5 14 3 12 7 21 16 21 21 0 4 4 6
9 3 13 -8 74 59 78 86 2 12 8 25 15 29 6 4 7 12 4 18 -4 6 -2 11 4 11 6 0 8 5
4 12 -5 7 -8 27 -9 44 0 17 -6 38 -12 45 -6 8 -11 18 -11 22 -1 15 -47 67 -59
67 -7 0 -13 5 -13 10 0 6 -6 10 -14 10 -8 0 -17 6 -19 13 -4 9 -6 9 -6 -1 -1
-9 -6 -10 -19 -3 -10 5 -27 9 -37 8 -12 -1 -24 7 -30 21 -5 12 -15 22 -22 22
-7 0 -13 6 -13 13 0 15 20 46 20 32 0 -14 43 56 48 80 3 11 6 32 6 48 1 15 4
27 8 27 8 0 4 27 -5 36 -4 4 -7 17 -7 28 0 12 -9 32 -20 46 -11 14 -20 31 -20
38 0 7 -4 11 -9 8 -5 -3 -11 1 -15 9 -3 8 -12 15 -20 15 -8 0 -16 5 -18 11 -2
5 -10 11 -18 13 -8 2 -22 6 -30 9 -17 8 -87 3 -112 -8 -11 -4 -19 -3 -19 4 -1
6 -2 14 -4 19 -14 51 -18 62 -26 62 -5 0 -9 7 -9 15 0 8 -4 15 -10 15 -5 0
-10 7 -10 16 0 8 -4 13 -9 10 -5 -3 -12 1 -15 10 -3 8 -10 12 -16 9 -5 -3 -10
-1 -10 4 0 6 -9 11 -20 11 -11 0 -20 4 -20 9 0 4 -16 7 -35 4 -24 -2 -35 1
-35 9 0 9 -3 9 -9 -1 -5 -8 -20 -16 -32 -18 -13 -2 -30 -10 -39 -18 -9 -8 -22
-15 -28 -15 -7 0 -12 -7 -12 -16 0 -8 -5 -12 -10 -9 -6 4 -8 11 -5 16 4 5 0 9
-7 9 -11 0 -11 2 0 9 10 6 10 10 -3 21 -8 7 -15 17 -15 22 0 10 -13 27 -52 66
-37 37 -58 54 -58 47 0 -3 -8 -2 -17 3 -10 5 -31 12 -46 16 -22 5 -27 4 -21
-6 5 -10 4 -11 -7 0 -7 6 -19 12 -27 12 -8 0 -10 -5 -6 -12 6 -10 5 -10 -7 -1
-9 7 -20 8 -29 3 -8 -5 -18 -6 -22 -4 -4 3 -8 0 -8 -5 0 -6 -9 -11 -20 -11
-11 0 -23 -7 -26 -15 -4 -8 -9 -14 -13 -12 -3 2 -18 -10 -33 -25 -15 -15 -24
-28 -22 -28 3 0 -4 -16 -16 -35 -12 -19 -18 -35 -15 -35 4 0 1 -8 -6 -17 -10
-11 -10 -14 -1 -9 6 4 12 3 12 -3 0 -5 -4 -12 -8 -15 -10 -6 -8 -32 2 -58 11
-24 0 -37 -29 -33 -14 1 -28 -1 -30 -5 -2 -4 -16 -5 -30 -2 -14 2 -32 -1 -40
-8 -8 -7 -20 -8 -27 -4 -7 5 -24 10 -38 12 -29 4 -160 137 -160 162 0 6 -4 10
-9 10 -21 0 -48 77 -49 139 0 51 -4 68 -21 84 -16 16 -21 18 -21 7 0 -10 -3
-11 -8 -4 -5 9 -11 8 -20 -3z m231 -497 c25 -25 47 -43 50 -40 2 2 16 -7 30
-20 15 -14 27 -22 28 -18 0 4 4 -2 8 -12 13 -32 1 -66 -23 -67 -11 0 -29 -2
-38 -4 -10 -2 -18 0 -18 4 0 5 -15 23 -32 42 -18 19 -31 39 -30 44 2 6 1 7 -3
3 -4 -4 -15 0 -24 9 -23 24 -20 99 5 103 1 0 22 -20 47 -44z m161 26 c2 -4 -4
-8 -14 -8 -10 0 -16 4 -14 8 3 4 9 8 14 8 5 0 11 -4 14 -8z m501 -53 c-4 -5
-1 -9 4 -9 6 0 11 -5 11 -11 0 -6 9 -24 21 -40 20 -29 20 -29 1 -29 -11 0 -22
4 -24 9 -1 6 -16 12 -33 15 -16 2 -32 5 -35 6 -3 1 -15 1 -27 1 -11 -1 -24 3
-29 10 -4 7 -3 10 4 5 6 -3 13 -2 17 4 3 5 15 10 26 10 11 0 18 4 14 9 -3 5 4
12 15 16 11 3 20 11 20 16 0 6 5 7 10 4 6 -4 8 -11 5 -16z m-706 -119 c23 -23
41 -47 41 -56 0 -21 -46 -40 -63 -25 -8 6 -25 12 -39 13 -27 2 -32 24 -10 46
7 8 10 18 7 23 -4 5 -1 9 4 9 6 0 10 3 10 8 -5 31 3 28 50 -18z m384 -218 c-2
-7 2 -12 8 -12 19 0 -1 -18 -26 -22 -22 -5 -25 -2 -25 22 0 22 4 27 23 26 12
-1 21 -7 20 -14z m537 -127 c29 -9 18 -18 -29 -21 -32 -2 -41 1 -46 17 -4 10
-10 19 -15 19 -14 0 -21 33 -8 41 7 5 25 -4 44 -21 18 -15 42 -31 54 -35z
m-144 -56 c3 -6 2 -15 -3 -20 -5 -5 -16 4 -27 22 -18 31 -18 31 2 20 12 -6 24
-16 28 -22z m-609 -254 c0 -8 -7 -17 -14 -19 -8 -3 -11 -10 -8 -16 3 -5 0 -7
-9 -4 -12 5 -11 10 7 30 24 28 24 28 24 9z"/>
</g>
</svg>
