<?xml version="1.0" standalone="no"?>
<!DOCTYPE svg PUBLIC "-//W3C//DTD SVG 20010904//EN"
 "http://www.w3.org/TR/2001/REC-SVG-20010904/DTD/svg10.dtd">
<svg version="1.0" xmlns="http://www.w3.org/2000/svg"
 width="260.000000pt" height="260.000000pt" viewBox="0 0 260.000000 260.000000"
 preserveAspectRatio="xMidYMid meet">
<metadata>
Created by potrace 1.11, written by Peter Selinger 2001-2013
</metadata>
<g transform="translate(0.000000,260.000000) scale(0.100000,-0.100000)"
fill="#000000" stroke="none">
<path d="M351 2401 c-8 -5 -15 -18 -16 -28 -1 -10 -5 -29 -9 -43 -6 -19 -5
-21 3 -10 13 19 14 9 2 -24 -7 -17 -7 -26 2 -30 9 -3 9 -5 -1 -5 -10 -1 -10
-6 -1 -23 7 -13 11 -23 9 -23 -14 0 44 -105 63 -113 4 -2 7 -10 7 -17 0 -7 7
-16 16 -19 9 -4 14 -9 11 -12 -3 -4 0 -13 8 -20 8 -8 12 -21 9 -29 -4 -8 -2
-15 4 -15 10 0 13 -79 3 -95 -4 -5 -8 -23 -10 -40 -2 -16 -6 -32 -10 -35 -7
-5 -13 -28 -14 -47 0 -7 -4 -13 -8 -13 -7 0 -24 -49 -20 -63 1 -5 -3 -6 -9 -2
-5 3 -10 0 -10 -7 0 -8 -10 -14 -22 -15 -11 -1 -24 -7 -28 -13 -4 -7 -10 -11
-14 -11 -27 2 -116 -77 -116 -104 0 -7 -4 -15 -10 -17 -5 -1 -10 -18 -12 -35
-1 -18 -5 -33 -8 -33 -7 0 -6 -73 2 -85 3 -6 4 -20 3 -32 -1 -13 2 -23 6 -23
4 0 7 -45 6 -100 -1 -68 2 -103 10 -108 6 -4 14 -19 18 -34 4 -15 13 -29 21
-32 16 -6 19 -42 3 -51 -6 -4 -8 -13 -5 -20 3 -8 0 -15 -5 -17 -10 -3 -14
-105 -6 -138 8 -35 32 -90 38 -90 4 0 11 -9 14 -20 3 -11 13 -20 21 -20 8 0
14 -5 14 -11 0 -6 7 -8 16 -5 8 3 12 2 9 -4 -12 -19 102 -30 155 -15 14 3 31
7 38 7 6 1 12 5 12 10 0 4 7 8 15 8 8 0 15 5 15 12 0 6 3 9 6 5 4 -3 13 0 21
8 17 18 33 19 33 4 0 -6 6 -16 13 -22 17 -17 67 -48 67 -43 0 3 11 -1 24 -8
14 -7 42 -11 63 -9 21 2 46 4 55 4 10 0 20 5 23 10 4 5 11 7 16 4 5 -4 9 -2 9
4 0 6 12 17 28 25 15 8 23 15 19 16 -4 0 3 11 17 23 14 13 23 27 19 31 -4 4 0
4 10 0 9 -3 17 -10 17 -16 0 -5 5 -6 11 -3 13 8 8 -27 -5 -37 -14 -10 -12
-151 2 -156 7 -2 12 -9 12 -15 0 -13 43 -67 54 -67 3 0 15 -9 26 -20 12 -12
25 -18 30 -15 6 4 15 3 22 -1 26 -16 159 11 141 29 -3 4 5 7 20 7 14 0 29 -5
32 -10 5 -8 11 -8 20 0 10 8 15 8 20 -1 6 -8 10 -7 16 2 5 8 9 10 9 4 0 -5 11
-10 24 -10 13 0 22 3 20 6 -2 4 12 10 31 13 19 4 35 11 35 17 0 6 4 8 9 4 5
-3 16 2 24 10 9 8 18 15 21 15 8 0 3 -32 -7 -47 -5 -8 -3 -13 5 -13 9 0 9 -3
-2 -10 -13 -8 -13 -17 3 -72 10 -35 18 -68 19 -75 1 -7 5 -10 9 -7 5 3 11 -7
15 -21 3 -14 9 -24 11 -21 3 3 16 -5 29 -17 41 -39 50 -45 82 -52 18 -3 32
-12 32 -18 0 -8 3 -8 8 -2 4 6 27 11 52 12 24 0 46 6 48 11 2 6 10 8 17 6 8
-3 28 8 44 25 17 18 31 29 31 25 0 -3 9 4 20 17 17 21 21 22 30 9 5 -8 10 -11
10 -6 0 5 9 -1 20 -14 11 -13 20 -20 20 -16 0 3 10 0 23 -9 13 -8 41 -16 63
-18 21 -1 44 -6 51 -10 6 -4 14 -3 17 2 3 5 22 12 41 15 20 4 33 11 30 17 -4
5 1 9 10 9 19 0 82 59 87 80 2 8 7 18 11 21 4 3 10 18 13 34 3 15 9 36 14 45
6 11 5 21 -3 30 -9 10 -9 11 0 6 7 -4 11 1 10 13 -1 11 -3 18 -6 15 -3 -2 -11
18 -18 46 -7 28 -18 58 -25 66 -26 32 -91 93 -97 91 -3 0 -16 4 -28 11 -12 6
-42 13 -67 14 -49 1 -55 8 -31 32 8 8 15 21 15 30 0 8 4 17 8 20 4 2 9 20 10
38 2 18 4 47 6 65 1 19 -2 29 -8 26 -5 -4 -7 1 -3 10 3 10 2 17 -4 17 -6 0 -7
5 -4 10 3 6 1 10 -5 10 -7 0 -10 5 -8 12 8 23 -95 108 -132 110 -3 0 -15 4
-28 9 -16 6 -21 6 -16 -2 5 -8 1 -8 -13 0 -14 7 -23 7 -31 -1 -9 -9 -12 -9
-12 1 0 28 20 49 45 47 13 -2 22 1 19 5 -3 5 2 9 10 9 8 0 22 7 30 16 12 11
16 12 16 2 0 -7 8 -1 17 12 9 14 20 27 24 30 3 3 9 15 13 28 5 13 12 20 19 15
7 -4 5 2 -3 12 -9 11 -10 16 -2 11 9 -5 12 4 13 36 1 24 0 48 -1 53 -1 6 -3
15 -4 22 -1 7 -5 16 -9 19 -4 4 -7 14 -7 22 0 21 -76 93 -100 95 -11 1 -20 5
-20 10 0 4 -8 7 -17 6 -40 -4 -59 4 -81 31 -16 21 -21 36 -17 51 5 15 9 18 15
9 5 -8 10 -3 14 14 4 16 11 24 18 20 6 -4 8 -3 5 3 -3 5 1 23 9 38 8 16 13 37
11 47 -3 10 -1 20 3 23 5 3 5 19 0 35 -5 17 -7 30 -4 30 2 0 -5 19 -17 43 -21
41 -69 98 -69 82 0 -5 -8 2 -19 13 -10 12 -21 19 -24 15 -4 -3 -13 0 -22 7
-12 10 -15 10 -15 -1 0 -10 -2 -11 -8 -2 -8 12 -82 14 -82 2 0 -4 -8 -6 -17
-5 -10 2 -22 20 -30 49 -7 26 -18 47 -23 47 -6 0 -10 6 -10 13 0 7 -10 19 -21
27 -12 8 -28 21 -35 28 -16 15 -116 43 -108 30 3 -4 -5 -6 -18 -5 -29 5 -94
-24 -113 -49 -13 -18 -14 -18 -24 9 -6 16 -11 35 -11 43 0 8 -4 14 -8 14 -5 0
-17 15 -27 34 -10 18 -34 42 -53 52 -20 10 -41 25 -49 32 -9 10 -13 10 -13 1
0 -9 -4 -8 -15 1 -8 7 -15 9 -15 5 0 -4 -7 -2 -15 5 -12 10 -15 10 -15 -1 0
-10 -3 -10 -11 -2 -8 8 -19 9 -38 2 -14 -6 -27 -10 -28 -10 -2 1 -4 1 -5 0 -2
0 -14 -3 -28 -5 -13 -3 -28 -11 -33 -19 -4 -8 -15 -15 -22 -15 -8 0 -15 -5
-15 -11 0 -5 -6 -7 -12 -3 -7 4 -10 4 -6 -1 4 -4 -3 -22 -16 -39 -34 -45 -45
-88 -42 -155 3 -50 1 -59 -13 -56 -9 1 -21 -2 -28 -7 -7 -5 -14 -5 -18 2 -3 6
-11 7 -18 3 -6 -4 -39 -7 -74 -8 -53 -2 -64 1 -68 16 -4 10 -9 18 -13 16 -8
-2 -92 77 -92 88 0 3 -6 12 -12 20 -28 29 -48 56 -48 64 0 5 -7 17 -16 26 -12
12 -17 37 -18 91 -1 54 -5 78 -16 84 -19 12 -31 12 -49 1z m199 -475 c0 -8 9
-18 20 -21 11 -3 20 -13 20 -21 0 -12 4 -15 25 -14 3 0 20 -13 38 -30 17 -16
37 -30 44 -30 7 0 10 -11 8 -27 -2 -16 -4 -31 -4 -35 -1 -5 -10 -8 -21 -8 -11
0 -20 -4 -20 -10 0 -5 -6 -9 -12 -7 -17 3 -38 23 -38 36 0 6 -5 11 -10 11 -6
0 -27 19 -48 42 -37 42 -49 88 -29 116 13 16 27 15 27 -2z m193 -13 c-3 -7 -6
-13 -8 -13 -2 0 -5 6 -8 13 -3 8 1 14 8 14 7 0 11 -6 8 -14z m544 -101 c7 -7
13 -20 13 -28 0 -11 -9 -10 -42 7 -24 12 -44 21 -45 20 -12 -6 -73 1 -73 9 0
6 3 9 8 9 16 -4 71 23 76 37 3 9 10 12 16 9 5 -3 10 0 11 7 1 7 6 -3 12 -22 6
-19 17 -41 24 -48z m-762 -50 c-2 -2 10 -16 26 -31 34 -33 35 -41 9 -64 -11
-9 -20 -13 -20 -8 0 5 -20 12 -44 15 -38 6 -44 10 -42 30 0 13 4 22 9 19 4 -2
7 0 7 6 0 5 4 21 10 36 8 22 12 24 29 13 11 -7 18 -14 16 -16z m410 -248 c0
-13 -8 -19 -27 -21 -23 -1 -27 2 -26 26 1 26 4 28 27 22 16 -5 26 -14 26 -27z
m455 -59 c5 3 14 -4 20 -15 10 -19 55 -45 71 -42 4 1 5 -8 2 -19 -4 -13 -8
-17 -13 -9 -4 6 -17 9 -32 5 -20 -5 -29 0 -49 27 -14 19 -23 42 -21 53 3 12 7
15 9 7 3 -6 9 -10 13 -7z m-60 -122 c0 -20 -14 -21 -32 -1 -10 10 -13 18 -7
18 5 0 7 5 4 11 -4 6 2 5 14 -3 12 -7 21 -18 21 -25z m-620 -251 c0 -5 -9 -17
-20 -27 -23 -21 -26 -14 -8 15 13 20 28 27 28 12z"/>
</g>
</svg>
